<?xml version="1.0" encoding="UTF-8"?>
<!DOCTYPE svg PUBLIC "-//W3C//DTD SVG 1.1//EN" "http://www.w3.org/Graphics/SVG/1.1/DTD/svg11.dtd">
<!-- Creator: CorelDRAW X6 -->
<svg xmlns="http://www.w3.org/2000/svg" xml:space="preserve" width="6.94444in" height="6.94444in" version="1.1" style="shape-rendering:geometricPrecision; text-rendering:geometricPrecision; image-rendering:optimizeQuality; fill-rule:evenodd; clip-rule:evenodd"
viewBox="0 0 6944 6944"
 xmlns:xlink="http://www.w3.org/1999/xlink">
 <defs>
  <style type="text/css">
   <![CDATA[
    .fil36 {fill:none;fill-rule:nonzero}
    .fil11 {fill:#2C2C2D;fill-rule:nonzero}
    .fil48 {fill:#2E2D30;fill-rule:nonzero}
    .fil38 {fill:#2E2E30;fill-rule:nonzero}
    .fil46 {fill:#2E2E32;fill-rule:nonzero}
    .fil15 {fill:#2E2F37;fill-rule:nonzero}
    .fil37 {fill:#2F3034;fill-rule:nonzero}
    .fil56 {fill:#2F303A;fill-rule:nonzero}
    .fil8 {fill:#303037;fill-rule:nonzero}
    .fil30 {fill:#313139;fill-rule:nonzero}
    .fil49 {fill:#32323C;fill-rule:nonzero}
    .fil7 {fill:#33333E;fill-rule:nonzero}
    .fil47 {fill:#33343F;fill-rule:nonzero}
    .fil57 {fill:#33393D;fill-rule:nonzero}
    .fil33 {fill:#34343F;fill-rule:nonzero}
    .fil54 {fill:#343642;fill-rule:nonzero}
    .fil9 {fill:#363747;fill-rule:nonzero}
    .fil39 {fill:#393A4B;fill-rule:nonzero}
    .fil53 {fill:#393B47;fill-rule:nonzero}
    .fil40 {fill:#404159;fill-rule:nonzero}
    .fil51 {fill:#414457;fill-rule:nonzero}
    .fil45 {fill:#43435A;fill-rule:nonzero}
    .fil52 {fill:#4C5069;fill-rule:nonzero}
    .fil55 {fill:#4CADE1;fill-rule:nonzero}
    .fil50 {fill:#676768;fill-rule:nonzero}
    .fil41 {fill:#8B8594;fill-rule:nonzero}
    .fil3 {fill:#9A94A1;fill-rule:nonzero}
    .fil2 {fill:#B0ABB5;fill-rule:nonzero}
    .fil42 {fill:#BBB7C9;fill-rule:nonzero}
    .fil23 {fill:#BFBBC8;fill-rule:nonzero}
    .fil21 {fill:#C8C4D2;fill-rule:nonzero}
    .fil43 {fill:#D8D6DB;fill-rule:nonzero}
    .fil4 {fill:#E0E1E0;fill-rule:nonzero}
    .fil5 {fill:#E1E0E5;fill-rule:nonzero}
    .fil35 {fill:#E6906D;fill-rule:nonzero}
    .fil1 {fill:#E7E6EA;fill-rule:nonzero}
    .fil24 {fill:#E8E7E8;fill-rule:nonzero}
    .fil14 {fill:#E93D3E;fill-rule:nonzero}
    .fil34 {fill:#E99B7A;fill-rule:nonzero}
    .fil28 {fill:#EBA689;fill-rule:nonzero}
    .fil26 {fill:#ECAE95;fill-rule:nonzero}
    .fil44 {fill:#ECEDEE;fill-rule:nonzero}
    .fil29 {fill:#EFB097;fill-rule:nonzero}
    .fil27 {fill:#EFB8A0;fill-rule:nonzero}
    .fil32 {fill:#EFBCA6;fill-rule:nonzero}
    .fil25 {fill:#F0BEA9;fill-rule:nonzero}
    .fil13 {fill:#F16664;fill-rule:nonzero}
    .fil31 {fill:#F1C2AF;fill-rule:nonzero}
    .fil22 {fill:#F1F1F3;fill-rule:nonzero}
    .fil0 {fill:#FEFEFE;fill-rule:nonzero}
    .fil6 {fill:url(#id0)}
    .fil16 {fill:url(#id1)}
    .fil10 {fill:url(#id2)}
    .fil12 {fill:url(#id3)}
    .fil19 {fill:url(#id4)}
    .fil20 {fill:url(#id5)}
    .fil17 {fill:url(#id6)}
    .fil18 {fill:url(#id7)}
   ]]>
  </style>
  <linearGradient id="id0" gradientUnits="userSpaceOnUse" x1="4019.14" y1="4383.57" x2="4325.19" y2="4337.5">
   <stop offset="0" style="stop-color:#FAC6C3"/>
   <stop offset="1" style="stop-color:#E37A95"/>
  </linearGradient>
  <linearGradient id="id1" gradientUnits="userSpaceOnUse" xlink:href="#id0" x1="4976.46" y1="4380.52" x2="5254.38" y2="4286.39">
  </linearGradient>
  <linearGradient id="id2" gradientUnits="userSpaceOnUse" xlink:href="#id0" x1="5336.28" y1="3802.13" x2="5417.52" y2="3565.36">
  </linearGradient>
  <linearGradient id="id3" gradientUnits="userSpaceOnUse" xlink:href="#id0" x1="5153.93" y1="3670.8" x2="5366.76" y2="3349.35">
  </linearGradient>
  <linearGradient id="id4" gradientUnits="userSpaceOnUse" x1="5334.04" y1="3716.55" x2="5385.67" y2="3566.09">
   <stop offset="0" style="stop-color:#F8B7B4"/>
   <stop offset="1" style="stop-color:#DC5E7A"/>
  </linearGradient>
  <linearGradient id="id5" gradientUnits="userSpaceOnUse" xlink:href="#id4" x1="5339.88" y1="3655.87" x2="5399.22" y2="3566.24">
  </linearGradient>
  <linearGradient id="id6" gradientUnits="userSpaceOnUse" xlink:href="#id4" x1="5177.82" y1="4344.81" x2="5276.53" y2="4311.37">
  </linearGradient>
  <linearGradient id="id7" gradientUnits="userSpaceOnUse" xlink:href="#id4" x1="5160.57" y1="3460.24" x2="5240.66" y2="3339.27">
  </linearGradient>
 </defs>
 <g id="Layer_x0020_1">
  <metadata id="CorelCorpID_0Corel-Layer"/>
  <path class="fil0" d="M6944 6944l-6944 0 0 -6944 6944 0 0 6944zm-2487 -1075c39,20 82,29 124,29 2,0 5,0 7,0 69,-2 137,-29 189,-81 38,-38 63,-85 74,-134 21,-90 -4,-189 -74,-260 -10,-10 -19,-21 -27,-33 -19,-29 -31,-63 -33,-97 -5,-59 15,-119 60,-164l1 -1 2 -2c5,-5 11,-10 16,-15 39,-32 86,-47 133,-47 54,0 108,21 149,62l2 2 383 383c50,50 115,77 181,80 4,0 8,0 11,0 70,0 139,-27 193,-80 106,-106 106,-277 2,-383 -1,-1 -1,-1 -2,-2l-286 -286c-5,-5 -9,-10 -13,-16l0 0c0,0 0,-1 -1,-1 -29,-43 -24,-102 14,-140l12 -12c12,-12 25,-22 38,-31 23,-15 48,-25 72,-25 7,0 13,1 20,2 24,5 44,13 62,23 1,1 2,1 4,2 5,3 9,6 14,9 28,19 51,44 80,74 3,3 6,7 10,10 15,15 31,31 51,48 20,17 41,31 64,42l0 0c25,12 51,20 77,24l0 0c15,3 31,4 47,4 77,0 153,-31 210,-91 51,-55 77,-125 77,-196 0,-74 -28,-147 -84,-203l-119 -119c-42,-42 -63,-97 -63,-152 0,-55 21,-110 63,-152l130 -130c8,-8 15,-16 22,-24 51,-62 77,-138 77,-213 0,-86 -33,-172 -98,-237l-1924 -1924c-41,-41 -95,-62 -149,-62 -54,0 -108,20 -149,62 -41,41 -62,95 -62,149 0,54 21,108 62,149l217 217c22,22 32,50 32,78l0 0c0,28 -11,57 -32,78 -22,22 -50,32 -78,32 -28,0 -57,-11 -78,-32l-824 -824c-38,-38 -87,-57 -136,-57 -49,0 -99,19 -136,57 -38,38 -57,87 -57,136 0,49 19,99 57,136l126 126c22,22 32,50 32,78 0,28 -11,57 -32,78l-13 13c-22,22 -50,32 -78,32 -28,0 -57,-11 -78,-32l-767 -767c-63,-63 -145,-94 -228,-94 -82,0 -165,31 -228,94 -63,63 -94,145 -94,228 0,82 31,165 94,228l428 428c22,22 32,50 32,78 0,28 -11,57 -32,78l-34 34c-22,22 -50,33 -78,33 -28,0 -57,-11 -78,-33l-341 -341c-36,-36 -82,-53 -129,-53 -47,0 -93,18 -129,53 -36,36 -53,82 -53,129 0,47 18,94 53,129l370 369c22,22 32,50 32,78 0,28 -11,57 -32,78l-87 87c-22,22 -50,32 -78,32 -28,0 -57,-11 -78,-32l-210 -210c-101,-101 -233,-151 -365,-151 -134,0 -267,52 -368,155 -99,100 -148,231 -148,362 0,132 50,264 151,365l207 207 708 708 106 106 87 87 193 193 73 73 72 72 10 10 21 21 164 164 93 93 210 210 306 306 270 270c35,35 80,52 126,52 30,0 60,-7 87,-22 14,-8 27,-17 38,-29 70,-69 71,-183 1,-252l-7 -7c-87,-88 -86,-230 3,-316 0,0 1,-1 1,-1 23,-21 48,-37 76,-47 25,-9 50,-13 76,-13 55,0 109,20 152,60 2,1 3,3 4,4l250 250 433 433c22,22 46,39 72,52z"/>
  <path class="fil1" d="M6348 3787c-7,8 -14,16 -22,24l-130 130c-84,84 -84,221 0,305l119 119c109,109 112,285 7,398 -105,113 -281,122 -398,21 -97,-84 -118,-142 -219,-165 -46,-10 -94,18 -130,54l-12 12c-43,43 -43,114 0,157l286 286c106,106 106,279 0,385 -53,53 -123,80 -193,80 -70,0 -139,-27 -193,-80l-385 -385c-82,-82 -216,-82 -298,0l-2 2c-81,81 -81,213 0,294 109,109 109,285 0,393 -109,109 -285,109 -393,0l-683 -683c-85,-85 -223,-86 -310,-3 -89,86 -91,228 -3,316l7 7c70,70 69,183 -1,252 -70,69 -182,68 -251,-1l-1604 -1604 -915 -915c-200,-200 -202,-524 -3,-726 101,-103 235,-155 368,-155 132,0 264,50 365,151l210 210c43,43 113,43 157,0l87 -87c43,-43 43,-114 0,-157l-370 -369c-71,-71 -71,-187 0,-259 36,-36 82,-53 129,-53 47,0 94,18 129,53l341 341c43,43 113,43 157,0l34 -34c43,-43 43,-113 0,-157l-428 -428c-126,-126 -126,-330 0,-455 63,-63 145,-94 228,-94 82,0 165,31 228,94l767 767c43,43 114,43 157,0l13 -13c43,-43 43,-113 0,-157l-126 -126c-75,-75 -75,-198 0,-273 38,-38 87,-57 136,-57 49,0 99,19 136,57l824 824c43,43 114,43 157,0 22,-22 32,-50 32,-78 0,-28 -11,-57 -32,-78l-217 -217c-82,-82 -82,-216 0,-298 41,-41 95,-62 149,-62 54,0 108,20 149,62l1924 1924c123,123 131,319 22,451z"/>
  <path class="fil2" d="M5083 3520l-616 0c-23,0 -42,-19 -42,-42l0 -894c0,-23 19,-42 42,-42l616 0c23,0 42,19 42,42l0 894c0,23 -19,42 -42,42z"/>
  <path class="fil0" d="M5037 3520l-616 0c-23,0 -42,-19 -42,-42l0 -894c0,-23 19,-42 42,-42l616 0c23,0 42,19 42,42l0 894c0,23 -19,42 -42,42z"/>
  <polygon class="fil2" points="4494,3404 4963,3404 4963,2658 4494,2658 "/>
  <path class="fil0" d="M4494 3058l0 0 0 -400 0 0 0 400zm469 -372l0 0 0 -29 0 0 0 29z"/>
  <polygon class="fil3" points="4523,3058 4494,3058 4494,2658 4963,2658 4963,2686 4523,2686 "/>
  <path class="fil4" d="M4818 3031c0,90 -46,163 -102,163 -56,0 -102,-73 -102,-163 0,-90 46,-163 102,-163 56,0 102,73 102,163z"/>
  <polygon class="fil0" points="2081,4642 3245,4642 3245,2708 1732,2708 1732,4293 "/>
  <path class="fil4" d="M3245 2832l0 1810 -1163 0 -155 -155 0 -1519c0,-75 61,-135 135,-135l1183 0z"/>
  <path class="fil5" d="M1646 4207l-106 -106 -708 -708 0 -463 720 0c52,0 93,42 93,93l0 1183z"/>
  <path class="fil2" d="M1868 2801l0 1628 -328 -328 -708 -708 0 -592c0,-52 42,-93 93,-93l849 0c52,0 93,42 93,93z"/>
  <path class="fil2" d="M3565 2356l163 -163c7,-7 16,-10 25,-10 9,0 18,3 25,10l172 172 10 -10 -172 -172c-10,-10 -23,-15 -35,-15 -13,0 -26,5 -35,15l-163 163 10 10z"/>
  <path class="fil6" d="M4041 4378l0 0 0 0c4,-4 9,-8 15,-12l0 0 0 0c2,-1 4,-3 5,-4l0 0 0 0c4,-3 8,-6 12,-8l0 0 0 0c1,-1 3,-2 4,-3l0 0 0 0c3,-2 6,-4 9,-6l0 0 0 0 2 -1 0 0 0 0 2 -1 1 0 0 0 2 -1 1 0 0 0 2 -1 1 0 0 0 2 -1 1 0 0 0 2 -1 0 0 0 0 3 -1 0 0 0 0c2,-1 4,-2 6,-3l0 0 0 0 3 -1 1 0 0 0 3 -1 0 0 0 0c1,0 3,-1 4,-1l0 0 0 0c1,0 3,-1 4,-1l0 0 0 0c3,-1 6,-2 10,-3l0 0 0 0c2,0 4,-1 6,-1l3 0 0 -1c1,0 3,-1 4,-1l3 0 0 0c3,-1 6,-1 10,-1 6,-1 11,-1 17,-1l8 0 0 0c2,0 4,0 6,0l0 0 1 0c7,0 13,1 20,1l0 0 0 0c3,0 6,1 10,1l0 0 1 0c3,0 5,1 7,1l0 0 1 0c39,7 63,21 63,21l15 11 8 42c0,0 -300,6 -299,0 0,-2 7,-9 18,-19z"/>
  <path class="fil7" d="M5799 4240c-2,122 -20,252 -20,252 0,0 -190,18 -345,17 -5,0 -9,0 -14,0 -102,-1 -186,-11 -187,-40 -3,-75 -44,-317 -44,-317l0 0c-8,7 -276,238 -352,259 -31,9 -109,8 -192,4l-1 0c-126,-6 -264,-19 -264,-19l-19 -51c443,-47 667,-327 751,-467 25,-41 54,-77 82,-106 69,-71 135,-109 135,-109 45,-3 83,-3 116,0l1 0c13,1 25,3 36,4l1 0c55,8 92,24 115,37 23,13 32,24 32,24l70 100c0,0 1,3 3,7 14,31 66,153 88,266 7,38 10,87 9,137z"/>
  <path class="fil8" d="M5778 4353c-40,-12 -105,-28 -175,-44 19,-43 29,-89 25,-138 -12,-150 -3,-248 -1,-270 1,8 2,17 3,25l0 0c1,12 2,25 4,38 18,147 143,387 143,387z"/>
  <path class="fil7" d="M5919 4548c-62,19 -410,-37 -552,-154l-23 -23 -45 -126c0,0 16,3 42,9 3,0 5,1 8,2l0 0c102,21 334,70 430,98 0,0 -125,-240 -143,-387 -2,-13 -3,-26 -4,-38 -2,-24 -6,-47 -11,-69 -19,-91 -51,-163 -52,-165l0 0 1 0c6,2 34,14 72,39 32,21 70,51 110,93 51,54 102,129 142,229 37,94 59,177 70,247 22,145 -2,235 -44,247z"/>
  <path class="fil8" d="M5969 4458l-493 0c-42,-19 -79,-40 -108,-64l-23 -23c3,-22 -29,-104 -38,-125 7,1 19,4 34,7 29,57 105,164 268,186 42,6 80,9 115,9 131,0 213,-43 240,-147 6,37 8,71 8,101 0,21 -1,40 -4,56z"/>
  <path class="fil9" d="M5800 4377c0,0 -1,0 -1,0 -51,-6 -369,-90 -413,-105 -16,-5 -28,-12 -37,-18 102,21 334,70 430,98l0 0c0,0 -125,-240 -143,-387 -2,-13 -3,-26 -4,-38 58,140 208,450 169,450z"/>
  <path class="fil8" d="M5340 3919c-5,0 -10,0 -14,-1 -69,-10 -123,-100 -133,-145 16,-16 31,-31 46,-44 -2,50 6,111 42,157 12,16 31,22 53,22 54,0 131,-40 198,-80 26,-15 50,-31 70,-44 7,22 13,46 18,73l0 0c-108,29 -225,61 -281,61z"/>
  <path class="fil8" d="M5621 3858l0 0c-5,-26 -12,-51 -18,-73 33,-21 58,-36 66,-36 0,0 0,0 0,0 0,0 0,0 0,0l58 49c8,8 17,17 25,26 -38,9 -84,21 -132,34z"/>
  <path class="fil7" d="M5252 3636c0,0 -45,156 29,250 43,54 157,-2 250,-57 67,-40 124,-80 136,-80l59 50c0,0 25,-338 -344,-256l-131 93z"/>
  <path class="fil8" d="M5339 3842c-4,0 -7,-1 -9,-2 -30,-19 -46,-127 -51,-175 1,0 2,0 3,0 2,0 3,0 5,0 2,0 4,-1 7,-1 0,0 0,0 0,0l0 0c9,15 18,32 26,52l0 0c9,22 16,47 20,73 1,8 7,11 16,11 31,0 95,-40 103,-74 7,-32 -14,-74 -32,-132 -3,-8 -5,-16 -8,-25 2,-4 4,-7 6,-11l0 0 1 2c0,0 1,1 2,1 2,0 6,-3 11,-9 13,-1 25,-2 37,-2 82,0 139,33 173,65 33,33 43,65 28,65 -1,0 -2,0 -2,0 -1,0 -2,0 -3,0 -23,0 -91,40 -161,81 -70,40 -141,81 -170,81zm85 -284c0,0 0,0 0,0 0,0 0,0 0,0zm-1 -3c0,0 0,0 0,0 0,0 0,0 0,0zm0 0c0,0 0,0 0,0 0,0 0,0 0,0zm0 0c0,0 0,-1 0,-1l0 0c0,0 0,1 0,1z"/>
  <path class="fil10" d="M5351 3799l0 0 -1 0c-5,-1 -9,-3 -10,-8l0 -1 0 0c0,-1 0,-2 -1,-3 -4,-27 -11,-52 -20,-73 34,-19 88,-59 106,-121 -2,-5 -4,-11 -5,-16 2,6 3,11 5,16 12,38 25,69 31,95l0 1 0 0c0,2 1,5 1,7l0 0 0 0c2,10 2,20 0,29 0,2 -1,3 -1,5l0 0 0 0c0,1 -1,2 -1,3l0 0 0 1c-1,2 -2,5 -4,7l0 0 0 0c-1,1 -2,3 -3,4l0 0 0 0 -1 1 0 0 0 1c-2,2 -4,4 -5,6l0 0 0 0 -1 1 0 0 0 0 -1 1 0 0 0 0 -1 1 0 0 0 0 -1 1 0 0 0 0 -1 1 0 0 0 0c-5,4 -10,9 -15,12l0 0 0 0c-3,2 -5,4 -8,6l0 0 0 0c-2,1 -4,3 -7,4l0 0 0 0c-9,5 -18,9 -26,12l0 0 0 0c-1,0 -3,1 -4,1l0 0 0 0c-4,1 -8,2 -12,3l-2 0 0 0c-1,0 -3,0 -4,0 -2,0 -3,0 -4,0zm60 -220l0 0c2,-2 3,-5 5,-7 1,-1 1,-2 2,-3 -1,1 -1,2 -2,3 -2,2 -3,5 -5,7zm0 0l0 0c-5,7 -10,13 -15,19l0 0c5,-6 11,-13 15,-19zm-15 19l0 0 -1 1 0 0 1 -1zm25 -22c-1,-3 -2,-5 -2,-8l0 0c1,3 2,5 2,8zm-127 86c0,0 0,0 0,0 2,0 3,-1 5,-1l0 0c-2,0 -3,1 -5,1zm6 -1c1,0 2,-1 4,-1l0 0c-1,0 -2,1 -3,1l0 0zm5 -1l3 -1 0 0 -3 1 0 0zm4 -1l3 -1 0 0 -3 1 0 0zm4 -1l3 -1 0 0 -3 1 0 0zm4 -1c1,0 2,-1 3,-1 -1,0 -2,1 -3,1zm3 -1l1 0 -1 0zm43 -25c0,0 0,0 0,0 0,0 0,0 0,0zm0 0c0,0 0,0 0,0 0,0 0,0 0,0zm0 0c2,-1 3,-3 5,-4 -2,1 -3,3 -5,4l0 0zm5 -4c3,-2 6,-5 8,-7 -3,2 -5,5 -8,7zm8 -7c6,-6 12,-12 18,-18l0 0c-6,6 -12,12 -18,18z"/>
  <path class="fil11" d="M5146 3523c6,5 13,8 21,8l-42 0c-27,0 -50,-37 -50,-82 0,-45 22,-82 50,-82l42 0c-7,0 -15,3 -21,8 -9,6 -16,17 -21,30 -5,13 -8,28 -8,44 0,16 3,31 8,44 5,13 12,24 21,30z"/>
  <path class="fil7" d="M5426 3559l-1 -2c-11,-22 -10,-159 -21,-154 -12,5 -8,72 -56,38 -48,-34 -34,-100 -53,-83 -55,51 -131,55 -135,40 -5,-15 60,-42 50,-47 -9,-5 -48,22 -118,22 -4,0 -8,0 -11,-1 -66,-5 -133,-53 -125,-74 4,-12 17,-10 30,-9 12,1 24,2 28,-7 4,-8 -12,-31 -30,-56 -25,-34 -54,-72 -42,-80 18,-12 42,15 55,16 2,0 4,0 6,-2 9,-12 -29,-84 0,-103 10,-7 20,-3 31,6 20,16 44,47 84,62 46,17 150,18 201,18l5 0c15,0 24,0 24,0 24,-22 125,-44 165,73 3,7 5,16 7,24 33,144 -80,334 -93,320z"/>
  <path class="fil8" d="M5427 3560c-1,0 -1,0 -2,-1l-1 -2 0 0c0,0 0,0 0,0 0,0 0,0 0,0 0,-1 -1,-2 -1,-3 0,0 0,0 0,0 0,0 0,0 0,0 0,0 0,0 0,0 0,0 0,0 0,0 -10,-28 -9,-146 -18,-151 0,0 0,0 -1,0 0,0 0,0 -1,0l0 0c0,0 0,0 0,0 0,0 0,0 0,0l0 0c0,0 0,0 0,0 0,0 0,0 0,0 0,0 0,0 0,0 0,0 0,0 0,0l0 0c0,0 0,0 0,0l0 0c-8,8 -9,47 -31,47 0,0 0,0 0,0 0,0 0,0 0,0 -6,0 -13,-3 -22,-9 0,0 0,0 0,0 0,0 -1,0 -1,-1l0 0c-13,-9 -21,-20 -27,-32 -5,-10 -8,-21 -11,-30 -3,-11 -4,-20 -7,-22 -1,-1 -1,-1 -2,-1 -1,0 -3,1 -5,3l0 0c0,0 -1,1 -1,1 0,0 0,0 0,0 0,0 0,0 0,0 0,0 0,0 0,0 0,0 0,0 0,0 -36,33 -81,45 -109,46 0,0 -1,0 -1,0l0 0c-13,0 -22,-3 -24,-8l0 0c0,-1 0,-1 0,-2 0,-14 51,-37 51,-44l0 0c0,-1 0,-1 -1,-1l0 0c-1,0 -2,-1 -3,-1 0,0 0,0 0,0l0 0c-13,0 -51,23 -115,23l0 0c-4,0 -8,0 -11,-1 -49,-4 -99,-31 -118,-54 -5,-6 -8,-12 -8,-17 0,-1 0,-2 1,-4 3,-8 10,-10 19,-10 4,0 7,0 11,1 4,0 8,1 11,1 8,0 14,-1 17,-8 0,-1 1,-2 1,-3 0,-10 -15,-31 -31,-53 26,17 60,32 104,39 17,3 33,4 49,4 46,0 87,-11 122,-22 35,-11 64,-22 87,-22 5,0 10,1 15,2 19,5 54,14 85,14 27,0 53,-7 67,-28 3,7 5,16 7,24 4,18 6,37 6,56 0,127 -81,265 -98,265z"/>
  <path class="fil12" d="M5265 3661l0 0 0 0c-1,0 -2,-1 -4,-1 -2,-1 -5,-2 -7,-3l0 0 0 0 -3 -1 0 0 0 0 -3 -1 -2 -1 0 0 0 0c-5,-3 -11,-6 -16,-10l0 0 0 0c-1,-1 -3,-2 -4,-3l0 0 0 0c-13,-9 -25,-18 -34,-27 -7,-6 -13,-13 -20,-22l0 0 0 0c-1,-2 -3,-3 -4,-5l0 0 0 0c-4,-5 -7,-11 -11,-17l0 0 0 0c-1,-2 -3,-5 -4,-7l0 0 0 0c-2,-4 -5,-8 -7,-12l0 0 0 0 -1 -3 0 0 0 0 -1 -3 0 0 0 0 -1 -2 0 0 0 0 -1 -2 0 0 0 0 -1 -3 0 0 0 0 -1 -3 0 0 0 0 -1 -3 0 0 0 0 0 0c-1,-3 -3,-6 -4,-9l0 -1 0 0 -1 -2 0 0 0 0 -1 -3 0 0 0 0 -1 -3 0 -1 0 0 -1 -2 0 -1 0 0 -1 -3 0 -1 -1 0 -1 -2 0 -1 0 0 -1 -3 0 0 0 0 -1 -3 0 -1 0 0 -1 -3 0 0 0 0c-3,-7 -6,-15 -8,-22l0 0 0 0 -1 -4 0 0 0 0 -1 -3 0 -1 0 0 -1 -3 0 -1 0 0 -1 -3 0 -1 0 0 -1 -3 0 -1 0 0 -1 -3 0 -1 0 0 -1 -3 0 -1 0 0c-1,-4 -2,-7 -3,-11 21,11 48,19 82,19 38,0 85,-10 142,-39 0,-1 -1,-2 -1,-3l0 0c0,1 1,2 1,3 6,12 14,23 27,32l0 0 0 0c0,0 1,0 1,1l0 0c0,0 0,0 0,0l0 0c9,6 16,9 22,9l0 0c0,0 0,0 0,0l0 0 0 0c0,0 0,0 0,0l0 0c17,0 22,-23 27,-37l0 0 0 0c1,-4 3,-8 5,-10l0 0 0 0 0 0c0,0 0,0 0,0l0 0 0 0 0 0c0,0 0,0 0,0l0 0c0,0 0,0 0,0l0 0c0,0 0,0 0,0l0 0c0,0 0,0 0,0l0 0 0 0 0 0c0,0 0,0 0,0l0 0c0,0 0,0 0,0l0 0 0 0c0,0 0,0 1,0 0,0 0,0 1,0l0 0c0,0 1,0 1,1l0 0 0 0c0,1 1,2 1,3l0 0 0 0c4,12 6,51 8,86 1,16 2,31 4,43 1,7 2,13 3,17 0,0 0,1 0,1l0 0c0,0 0,0 0,0l0 0c0,0 0,0 0,0l0 0c0,0 0,0 0,0l0 0c0,0 0,0 0,0l0 0c0,1 1,2 1,3l0 0c0,0 0,0 0,0l0 0c0,0 0,0 0,0l0 0 0 0c-2,3 -3,6 -5,9l0 0 0 0 -1 2 0 0c0,0 0,0 0,0 0,0 0,1 -1,1 -1,1 -1,2 -2,3 -2,2 -3,5 -5,7l0 0 0 0c-5,7 -10,13 -15,19l0 0 0 0 -1 1 0 0 0 0c-6,6 -12,12 -18,18l0 0 0 0c-3,2 -5,5 -8,7l0 0 0 0c-2,1 -3,3 -5,4l0 0c0,0 0,0 0,0 0,0 0,0 0,0 0,0 0,0 0,0 -2,1 -4,3 -5,4l0 0 0 0c-1,1 -3,2 -4,3l0 0 0 0c-1,1 -3,2 -4,3l0 0 0 0c-9,6 -18,11 -28,15l-1 0 0 0 0 0c-1,0 -2,1 -3,1l-1 0 0 0 -3 1 -1 0 0 0 -3 1 -2 0 0 1 -3 1 -1 0 0 0c-1,0 -2,1 -4,1l-1 0 0 0c-2,0 -3,1 -5,1 -2,1 -4,1 -7,1l0 0 0 0 0 0c-1,0 -3,0 -4,0l0 0c-1,0 -2,0 -3,0 -4,0 -9,-1 -14,-3zm54 -254l0 0c-5,-10 -7,-19 -9,-28l0 0c-3,-11 -4,-20 -7,-22l0 0c-1,-1 -1,-1 -2,-1 -1,0 -3,1 -5,3l0 0 0 0c0,0 -1,1 -1,1l0 0c0,0 0,0 0,0l0 0c0,0 0,0 0,0l0 0c0,0 0,0 0,0l0 0c0,0 0,0 0,0l0 0c-2,2 -3,3 -5,5l0 0c2,-2 5,-4 7,-6 2,-2 4,-3 5,-3 7,0 7,25 19,51zm-77 -14l0 0c15,-6 31,-15 45,-28 -15,12 -30,21 -45,28zm-78 10l0 0c-2,-1 -4,-3 -4,-4l0 0c0,-1 0,-1 0,-2 0,1 0,1 0,2 1,2 2,3 4,4zm78 -10c-22,9 -43,13 -58,13 -9,0 -16,-1 -20,-3 4,2 11,3 20,3l0 0 0 0 0 0 0 0c0,0 1,0 1,0l0 0c15,0 36,-4 57,-13z"/>
  <path class="fil13" d="M5392 3319c0,0 7,-163 -146,-176 88,-7 172,-21 201,165l-55 11z"/>
  <path class="fil13" d="M5537 3404c0,56 -27,101 -61,101 -9,0 -18,-3 -26,-10 -11,-8 -20,-21 -26,-37 -6,-16 -10,-34 -10,-54 0,-20 3,-38 10,-54 6,-16 15,-29 26,-37 8,-6 17,-10 26,-10 34,0 61,45 61,101z"/>
  <path class="fil14" d="M5521 3404c0,28 -14,50 -31,50 -5,0 -9,-2 -13,-5 -5,-4 -10,-10 -13,-19 -3,-8 -5,-17 -5,-27 0,-10 2,-19 5,-27 3,-8 8,-15 13,-19 4,-3 8,-5 13,-5 17,0 31,23 31,51z"/>
  <path class="fil11" d="M5450 3495c8,6 17,10 26,10l-51 0c-34,0 -61,-45 -61,-101 0,-56 27,-101 61,-101l51 0c-9,0 -18,3 -26,10 -11,8 -20,21 -26,37 -6,16 -10,34 -10,54 0,20 3,38 10,54 6,16 15,29 26,37z"/>
  <path class="fil15" d="M5344 4370c-4,25 -51,23 -61,14 -2,-2 -5,-9 -9,-19 -12,-37 -29,-115 -22,-124 9,-12 52,0 52,0 0,0 44,104 40,129z"/>
  <path class="fil16" d="M5147 4424l0 0 0 0 -169 -47c0,0 36,-52 80,-88l0 0 0 0c10,-8 20,-15 30,-21l0 0 0 0c2,-1 4,-2 6,-3l2 -1 0 0 0 0c2,-1 4,-2 6,-3l1 0 0 0c2,-1 4,-2 7,-3l0 0 0 0c1,0 2,-1 4,-1l0 0 0 0c1,0 3,-1 4,-1l0 0 0 0c3,-1 6,-2 10,-3l0 0 0 0c2,0 4,-1 5,-1l0 0 0 0c7,-2 13,-3 20,-4l1 0 0 0c3,0 5,-1 8,-1l0 0 0 0c10,-1 19,-2 28,-3 4,0 7,-1 10,-1 15,-1 29,-1 38,-1 8,0 12,0 12,0l0 0 0 0c0,0 -4,0 -12,0 -11,0 -28,0 -48,2 2,6 4,14 5,24l0 1 0 0c0,3 1,5 1,8l0 0 0 0c1,3 1,7 1,11l0 0 0 0c1,6 1,12 1,18l0 4 0 0c0,5 0,9 0,14l0 0 0 6c0,5 -1,10 -1,16l0 0 0 2c0,3 -1,5 -1,8l0 0 0 2c-1,6 -2,12 -4,19l0 0 0 2c0,1 -1,3 -1,4l0 0 0 1c0,1 -1,3 -1,4l0 0 0 0c-1,3 -2,5 -3,8l0 0 0 1 -1 3 0 0 0 0 -1 2 0 0 0 1 -1 3 0 0 0 1c-1,3 -3,6 -4,10l0 0c-14,7 -23,11 -23,11l0 0 -10 -3z"/>
  <path class="fil17" d="M5263 4372l0 0 0 0c-2,1 -4,3 -7,4l0 0 0 0c-7,4 -14,8 -22,12l0 0 0 0c-3,2 -6,3 -9,5 -16,8 -32,16 -44,22l0 0c33,-69 20,-143 12,-173 20,-2 37,-2 48,-2 8,0 12,0 12,0 -1,2 -2,5 -2,10l0 0c0,25 13,84 23,114 -3,2 -7,5 -11,7z"/>
  <path class="fil8" d="M4743 4418c-30,0 -65,-1 -100,-3 8,0 17,0 27,0 315,-3 460,-417 503,-438 -11,63 15,175 15,175l0 0c-8,7 -276,238 -352,259 -18,5 -51,7 -92,7z"/>
  <path class="fil0" d="M5390 3863c0,0 -3,41 -3,96 0,65 4,149 21,214 1,4 5,6 9,5 4,-1 6,-5 5,-9 -17,-62 -20,-146 -20,-210 0,-27 1,-51 1,-68 1,-17 1,-27 1,-27 0,-4 -3,-7 -7,-8 -4,0 -7,3 -8,7l0 0z"/>
  <path class="fil0" d="M5290 3862c0,0 -14,94 -14,193 0,51 4,103 16,145 1,4 5,6 9,5 4,-1 6,-5 5,-9 -11,-39 -15,-90 -15,-141 0,-48 4,-96 7,-132 2,-18 4,-32 5,-43 1,-10 2,-16 2,-16 1,-4 -2,-8 -6,-8 -4,-1 -8,2 -8,6z"/>
  <path class="fil18" d="M5161 3447l0 0 -3 0c-3,0 -7,-1 -10,-1l0 0 -1 0c-2,0 -5,-1 -7,-1l0 0 -1 0c-6,-1 -11,-2 -16,-4l0 0 -1 0c-1,0 -2,-1 -4,-1l0 0 -1 0c-3,-1 -5,-2 -8,-3l0 0 0 0c-3,-1 -7,-3 -10,-4l0 0 0 0c-2,-1 -3,-2 -5,-2l0 0 -1 -2 0 0 0 0c-1,-5 -3,-9 -4,-14l0 0 0 0c-2,-7 -4,-13 -5,-19l0 0 0 0c-2,-7 -4,-14 -5,-21 4,0 8,1 11,1 62,0 99,-21 113,-23l0 0 0 0c1,0 1,0 1,0 0,0 1,0 1,0l0 0 0 0c1,0 1,0 2,0 1,0 1,1 1,1 0,7 -51,29 -51,44l0 0c0,1 0,1 0,2 2,5 11,8 24,8 28,0 74,-13 111,-47 2,-2 4,-3 5,-3 8,0 7,27 20,54 -2,1 -4,2 -6,3l-1 0 0 0 -2 1 -1 0 0 0 -2 1 0 0 0 0 -3 1 0 0 0 0 -3 1 -1 0 0 1 -2 1 -1 0 0 0 -2 1 -1 0 0 0 -3 1 0 0 0 0 -3 1 -1 0 0 0 -2 1 0 0 0 0c-4,1 -7,3 -10,4l-1 0 0 0 -3 1 -1 0 0 0 -3 1 -1 0 0 0 -3 1 -1 0 0 0 -3 1 -1 0 0 0 -3 1 -1 0 0 0 -4 1 0 0 0 0c-5,2 -11,3 -16,4l-2 0 0 0c-1,0 -3,1 -4,1l-3 0 0 1c-2,0 -3,1 -5,1l-2 0 0 0c-2,0 -4,1 -7,1l0 0 0 0c-4,1 -8,1 -12,1l-5 0 0 0c-5,0 -11,1 -16,1l0 0c-6,0 -12,0 -17,-1z"/>
  <path class="fil19" d="M5424 3600l0 0 0 1c0,1 -1,2 -1,3l0 0 0 0c-1,2 -2,4 -3,7l0 0 0 0c-2,5 -4,9 -7,14l0 0 0 1 -1 2 0 0 0 0c-2,4 -4,7 -7,11l0 0 0 0c-1,1 -2,3 -3,4l0 0 0 0c-1,2 -3,4 -4,5l0 0 0 0c-24,31 -55,53 -78,65l0 0 0 0c-8,-20 -17,-37 -26,-52 9,-2 18,-5 27,-9 14,-6 28,-14 42,-24 0,0 0,0 0,0 0,0 0,0 0,0 0,0 0,0 0,0l0 0c20,-15 39,-35 53,-57 1,-1 1,-2 2,-3 0,0 0,-1 1,-1 2,9 5,17 8,25 -1,2 -1,5 -2,7z"/>
  <path class="fil20" d="M5353 3636l0 0c1,-1 3,-2 4,-3 -1,1 -3,2 -4,3zm0 0l0 0c-1,1 -3,2 -4,3l0 0c1,-1 3,-2 4,-3zm-4 3l0 0c-9,6 -18,11 -28,15 9,-4 19,-9 28,-15zm8 -6c2,-1 4,-3 5,-4 -2,1 -4,3 -5,4zm5 -4c0,0 0,0 0,0 0,0 0,0 0,0zm55 -60c0,0 0,-1 1,-1 0,0 0,0 0,0 0,0 0,1 -1,1l0 0z"/>
  <path class="fil13" d="M5240 3632c-4,0 -7,-3 -7,-6 0,-4 2,-8 6,-8 130,-14 180,-132 180,-133 2,-4 6,-5 9,-4 4,2 5,6 4,9 -1,1 -54,127 -192,142l-1 0z"/>
  <path class="fil2" d="M4549 2572l163 -163c7,-7 16,-10 25,-10 9,0 18,3 25,10l172 172 10 -10 -172 -172c-10,-10 -23,-15 -35,-15 -13,0 -26,5 -35,15l-163 163 10 10z"/>
  <path class="fil2" d="M4098 3319l-616 0c-23,0 -42,-19 -42,-42l0 -894c0,-23 19,-42 42,-42l616 0c23,0 42,19 42,42l0 894c0,23 -19,42 -42,42z"/>
  <path class="fil21" d="M4051 3319l-616 0c-23,0 -42,-19 -42,-42l0 -894c0,-23 19,-42 42,-42l616 0c23,0 42,19 42,42l0 894c0,23 -19,42 -42,42z"/>
  <polygon class="fil22" points="3509,3202 3978,3202 3978,2456 3509,2456 "/>
  <path class="fil4" d="M3832 2829c0,90 -46,163 -102,163 -56,0 -102,-73 -102,-163 0,-90 46,-163 102,-163 56,0 102,73 102,163z"/>
  <path class="fil23" d="M3509 3010l0 0 0 -554 0 554zm469 -526l0 0 0 -29 0 0 0 29z"/>
  <polygon class="fil24" points="3537,3028 3509,3010 3509,2456 3978,2456 3978,2485 3537,2485 "/>
  <path class="fil25" d="M6123 4525l0 234c0,37 -30,67 -67,67l-67 0c-23,-11 -44,-25 -64,-42 -97,-84 -118,-142 -219,-165 -46,-10 -94,18 -130,54l-12 12c-38,38 -43,98 -13,141l-3284 0 -267 -267 0 -35c0,-34 25,-62 58,-67l0 0c3,0 6,-1 9,-1l3990 0c37,0 67,30 67,67z"/>
  <path class="fil26" d="M6056 4826l-67 0c-16,-8 -32,-17 -47,-28l0 0 0 0c-4,-3 -7,-6 -11,-9l0 0m-6 -5l-3 -2 -1 -1 -1 -1 0 0 -1 -1 -3 -2 -1 -1 0 0 -1 -1 -1 -1 -1 -1 -1 -1 -1 -1 0 0 -1 -1 -1 -1 -1 -1 -1 -1 -1 -1 0 0 -1 -1 -1 -1 -2 -2 -1 -1 0 0 -3 -3 -1 -1 0 0 -1 -1 -2 -1 -1 -1 -1 -1 0 0 -1 -1 -1 -1 -1 -1 -1 -1 -1 -1 0 0 -1 -1c-6,-6 -11,-11 -17,-16 23,-30 46,-61 67,-95l116 0c37,0 67,30 67,68l0 49c0,37 -30,67 -67,67m-192 -99l-7 -7 0 0 -1 -1 -5 -5 0 0 -1 -1 -1 -1 0 0 -1 -1 -1 -1 -1 -1 -1 -1 -1 -1 -1 -1 0 0 -1 -1 -1 -1 0 0 -1 -1 -1 -1 -1 -1 -1 -1 -1 -1 -1 -1 0 0 -1 -1 -1 -1 0 0 -1 -1 -2 -2 -1 -1 -1 -1 -1 -1 -1 -1 -1 -1 0 0 -1 -1 -1 -1 -1 -1 -1 -1 -1 -1 -1 -1 0 0 0 0 -2 -2 0 0 0 0 -1 -1 -1 -1 -1 -1 -1 0 -1 -1 0 0 -2 -2 0 0 -1 -1 -1 -1 0 0 -1 -1 -1 -1 -1 0 -1 -1 -1 0 -1 -1 -1 -1 -1 -1 -1 -1 0 0 -1 -1 0 0 -1 -1 0 0 -1 -1 -1 -1 0 0 -1 -1 -1 -1 -1 -1 0 0 -1 -1 0 0 -1 -1m-239 174l-165 0 0 0 -683 0 -33 0c-5,-27 0,-60 9,-85 13,-40 37,-74 69,-99l194 0c-53,32 -100,79 -44,120 15,11 34,13 52,16 35,5 70,7 105,9 27,1 54,2 81,2 41,0 82,-2 123,-5 95,-8 221,-20 277,-109 7,-11 12,-22 15,-32l68 0 -1 1 0 0c-4,3 -8,5 -12,8l0 0c-1,1 -2,2 -4,3l0 0 -2 1 0 0 -2 1 0 0 -2 2 0 0 -1 1 0 0 0 0c-1,1 -2,2 -3,3l0 0 0 0 -1 1 -1 1 0 0 0 0 -1 1 0 0 0 0 -1 1 -1 1 0 0 0 0 -1 1 -1 1 0 0 0 0 -1 1 -1 0 0 0 -2 2 -12 12 -2 2 0 1 -1 1 0 1 -1 1 -1 1 -1 1 -1 1 -1 1 -1 1 -1 1 -1 1 0 0 -1 2 0 0 -1 2 0 0 -1 1 -1 1 -1 1 -1 1 -1 1 -1 1 -1 1 -1 1 -1 1 -1 1 -1 1 0 0 -1 2 0 0 -1 2 -1 1 0 1 0 1 -1 1 0 1 -1 1 0 1 0 1 0 1 0 1 0 1 0 1 0 1 0 0 -1 2 0 0 -1 2 0 0 0 1 0 2 0 1 0 2 0 1 0 2 0 1 0 1 0 1 0 2 0 1 0 0 0 2 0 0c0,1 0,2 0,3l0 0 0 2 0 1 0 2 0 1 0 2 0 1 0 2 0 0c0,1 0,2 0,2l0 0 0 2 0 0 0 0 0 2 0 0 0 1 0 2 0 1 0 2 0 1 0 2 0 1 0 2 0 1 0 2 0 0 1 2 0 0 0 0 1 2 0 0 0 0 1 2 0 1 1 2 0 1 1 1 0 1 1 2 0 1 1 2 0 1c1,1 1,3 2,4l1 1 1 1 0 1 1 2 0 1 1 1 0 1 1 1 1 1 1 1 1 1 0 0c-1,0 -3,1 -4,1zm-895 0l-94 0 0 0 -338 0 -46 0c94,-72 196,-134 302,-184l245 0c-50,47 -81,116 -70,184zm-501 0l-53 0 0 0 -165 0c7,-4 14,-9 20,-14 57,-42 87,-104 104,-171l41 0c-7,21 -10,43 -8,65 0,4 3,7 7,7 0,0 0,0 0,0 60,-3 108,-40 156,-73l188 0c-103,51 -201,113 -292,184zm-390 0l-292 0c-2,0 -3,-1 -5,-1 -102,-26 -173,-90 -249,-159 -9,-8 -18,-16 -28,-24l373 0c21,35 57,61 103,67 7,1 13,1 19,1 50,0 83,-28 102,-68l261 0c-9,31 -20,60 -34,86 -25,45 -64,77 -109,99l-141 0m-342 0l-36 0 0 0 -220 0c-37,-39 -75,-77 -116,-111 -31,-26 -87,-64 -137,-64 -16,0 -31,4 -44,13 -25,18 -14,53 -11,78 3,29 5,57 1,84l-127 0c14,-16 25,-34 33,-55 15,-38 20,-85 18,-130l381 0c53,47 105,96 163,137 29,20 61,36 94,48zm-374 0l-173 0c2,-16 3,-33 2,-50 -1,-17 -3,-34 -6,-51 -8,-18 -3,-30 15,-39 5,-12 12,-17 21,-17 1,0 1,0 2,0 3,-1 5,-1 8,-1 9,0 19,2 27,4 43,10 80,39 112,68 30,28 59,56 88,86l-97 0m-336 0l-43 0 0 0 -286 0c-48,-21 -90,-55 -118,-107 -13,-24 -22,-50 -28,-77l244 0c2,23 10,45 24,63 2,2 4,3 6,3 5,0 10,-5 6,-10 -13,-16 -20,-36 -22,-56l271 0c0,5 0,10 0,15 2,41 -2,82 -18,119 -10,21 -22,38 -37,50zm-381 0l-61 0m-23 -23l-141 -141c-3,-7 -7,-14 -10,-21l126 0c1,5 2,9 3,14 19,76 65,134 126,170l-21 0m2802 -52c-57,0 -114,-3 -170,-10 -13,-2 -30,-2 -42,-8 -37,-15 -36,-48 -13,-74 16,-18 38,-30 59,-41l307 0c-4,3 -8,7 -13,10 -46,33 -101,52 -156,61 -9,2 -6,14 3,14 0,0 1,0 1,0 28,-5 152,-38 188,-84l238 0c-2,5 -4,10 -7,16 -47,92 -179,104 -270,111 -42,3 -83,5 -125,5zm796 -132c-19,30 -39,58 -60,85m-1753 -26c-3,0 -6,-1 -7,-2 -4,-3 1,-28 2,-33 1,-8 4,-16 6,-24l119 0c-25,18 -52,34 -79,46 -7,3 -28,13 -40,13zm-431 -5c-21,0 -42,-5 -60,-14 -20,-10 -35,-23 -46,-39l195 0c-6,11 -14,22 -24,31 -18,16 -42,23 -65,23zm2090 -52l-1 -1 0 0 0 0 0 0 0 0 0 0 0 0 0 0 0 0 0 0 0 0 0 0 0 0 0 0 0 0 0 0 0 0 0 0 0 0 0 0 0 0 0 0 0 0 0 0 0 0 0 0 0 0 0 0 0 0 0 0 0 0 0 0 0 0 0 0 0 0 5 0c0,0 0,0 0,0 0,1 -1,1 -1,2z"/>
  <path class="fil27" d="M2233 4642l-15 0c-8,-38 -9,-77 -3,-116l14 0c-2,12 -3,24 -3,34 -1,27 1,55 7,82zm13 -184l-14 0c0,0 0,0 0,-1l14 0c0,0 0,0 0,1z"/>
  <path class="fil28" d="M2379 4826l-31 0c-62,-36 -107,-94 -126,-170 -1,-5 -2,-9 -3,-14l15 0c6,27 15,53 28,77 28,52 70,86 118,107z"/>
  <path class="fil27" d="M2779 4642l-17 0c-1,-38 -2,-84 -40,-99 -21,-8 -46,-14 -73,-17l69 0c23,7 42,20 49,44 6,22 10,47 11,72zm-288 0l-15 0c-2,-27 4,-54 19,-78 12,-18 27,-30 44,-38l51 0c-19,2 -37,8 -52,17 -36,21 -52,61 -48,99z"/>
  <path class="fil28" d="M2729 4826l-21 0c15,-13 27,-29 37,-50 17,-37 20,-79 18,-119 0,-5 0,-10 0,-15l17 0c3,45 -3,92 -18,130 -8,20 -19,39 -33,55zm-222 -118c-2,0 -4,-1 -6,-3 -14,-19 -22,-41 -24,-63l15 0c2,20 9,39 22,56 4,5 -1,10 -6,10z"/>
  <path class="fil27" d="M3782 4642l-13 0c15,-30 18,-67 17,-100 0,-5 3,-7 7,-7 4,0 7,2 7,7 1,35 -5,71 -19,100zm-208 0l-16 0c-19,-32 -27,-71 -20,-111 0,-1 1,-3 1,-4l16 0c-8,41 -3,83 20,116zm7 -184l-17 0c0,0 0,0 0,-1l17 0c0,0 0,0 0,1z"/>
  <path class="fil28" d="M3680 4710c-6,0 -12,0 -19,-1 -47,-6 -82,-32 -103,-67l16 0c11,16 26,29 46,39 18,9 39,14 60,14 24,0 47,-7 65,-23 10,-9 18,-19 24,-31l13 0c-19,40 -51,68 -102,68z"/>
  <path class="fil27" d="M3185 4642l-26 0c-33,-29 -67,-57 -105,-81 -19,-12 -39,-24 -59,-35l28 0c57,33 111,73 161,116zm-331 -184l-173 0c0,0 0,0 0,-1l170 0c1,0 2,0 3,1z"/>
  <path class="fil28" d="M3467 4826l-50 0c-33,-12 -65,-27 -94,-48 -58,-41 -110,-90 -163,-137l26 0c9,8 19,16 28,24 76,69 147,133 249,159 2,0 3,1 5,1z"/>
  <path class="fil27" d="M4057 4642l-13 0c10,-38 16,-78 16,-116l13 0c0,13 -1,27 -3,40 -3,25 -7,51 -13,76zm11 -184l-14 0 0 -1 14 0c0,0 0,0 0,1z"/>
  <path class="fil28" d="M3932 4826l-32 0c45,-21 83,-54 109,-99 14,-25 26,-55 34,-86l13 0c-17,67 -47,129 -104,171 -7,5 -13,9 -20,14z"/>
  <path class="fil27" d="M3395 4625c-56,0 -103,-29 -145,-65 -13,-11 -26,-23 -38,-34l22 0c0,0 0,0 0,0 45,43 97,84 161,84 3,0 5,0 8,0 0,0 0,0 0,0 9,0 9,14 0,15 -3,0 -5,0 -8,0zm-229 -167l-21 0c0,0 0,0 -1,-1l21 0c0,0 0,0 1,1z"/>
  <path class="fil27" d="M5545 4642l-15 0c33,-96 -102,-132 -173,-144 -59,-10 -119,-14 -179,-14 -39,0 -79,2 -117,5 -203,14 -402,68 -585,154l-33 0c101,-50 206,-89 315,-118 107,-28 217,-46 327,-52 35,-2 72,-4 109,-4 85,0 171,8 249,34 64,22 120,74 103,139zm-253 0l-24 0c2,-2 4,-4 6,-6 7,-30 1,-46 -20,-49 -11,-3 -23,-3 -34,-3 -6,0 -12,0 -17,0 -26,0 -51,2 -76,6 -54,8 -108,24 -157,48 -3,1 -5,3 -8,4l-26 0c29,-18 60,-32 75,-37 55,-20 112,-32 171,-34 11,0 24,-1 38,-1 27,0 56,4 72,22 15,18 13,35 0,51z"/>
  <path class="fil28" d="M4173 4826l-23 0c91,-71 189,-133 292,-184l33 0c-107,50 -209,112 -302,184zm958 -38c-27,0 -54,-1 -81,-2 -35,-2 -70,-5 -105,-9 -17,-2 -37,-5 -52,-16 -57,-40 -9,-87 44,-120l26 0c-21,11 -43,22 -59,41 -23,26 -24,59 13,74 13,5 29,6 42,8 56,7 113,10 170,10 42,0 84,-2 125,-5 91,-7 223,-19 270,-111 3,-5 5,-11 7,-16l15 0c-3,10 -8,21 -15,32 -56,89 -182,101 -277,109 -41,3 -82,5 -123,5zm-29 -62c-8,0 -11,-13 -3,-14 55,-9 110,-28 156,-61 5,-3 9,-6 13,-10l24 0c-37,46 -161,80 -188,84 0,0 -1,0 -1,0z"/>
  <path class="fil27" d="M4742 4642l-22 0c19,-18 41,-32 64,-42 1,0 2,-1 3,-1 7,0 12,10 4,13 -18,8 -35,18 -50,30z"/>
  <path class="fil28" d="M4665 4826l-14 0c-11,-68 20,-137 70,-184l22 0c-32,25 -56,60 -69,99 -8,25 -14,57 -9,85z"/>
  <path class="fil27" d="M5789 4642l-18 0c29,-59 50,-121 64,-184l16 0c-13,64 -33,127 -62,184z"/>
  <path class="fil28" d="M5550 4826l-5 0c1,0 3,-1 4,-1 0,0 0,1 1,1zm234 -174l0 0 0 0 0 0 -2 -1 0 0 0 0 0 0 0 0 -3 -2 0 0 0 0 0 0 0 0 -3 -2 0 0 0 0 0 0 0 0 -3 -2 0 0 0 0 0 0 0 0 0 0 -1 -1c0,-1 1,-1 1,-2 0,0 0,0 0,0l18 0c-2,4 -4,7 -5,11z"/>
  <path class="fil27" d="M5940 4642l-16 0c36,-58 65,-121 71,-184l14 0c-7,64 -34,127 -70,184z"/>
  <path class="fil28" d="M5870 4733l0 0 0 0 0 0 0 0 0 0 -1 -1 0 0 0 0 0 0 0 0 0 0 0 0 0 0 0 0 0 0 0 0 -2 -2c21,-27 42,-55 60,-85l16 0c-21,33 -44,65 -67,95l-4 -4z"/>
  <path class="fil27" d="M4254 4642l-23 0c23,-16 46,-33 68,-47 77,-50 157,-95 238,-137l32 0c-39,20 -78,40 -116,62 -65,37 -129,75 -191,117 -3,2 -6,4 -9,6zm-142 0l-14 0c13,-40 38,-78 58,-116l14 0c-13,25 -28,49 -41,74 -7,14 -13,27 -18,42zm85 -178c-4,-2 -8,-4 -12,-5 0,0 0,-1 0,-1l14 0c-1,2 -1,4 -2,6z"/>
  <path class="fil28" d="M4097 4715c-4,0 -7,-4 -7,-7 -2,-23 1,-45 8,-65l14 0c-3,8 -5,16 -6,24 -1,5 -6,29 -2,33 2,1 4,2 7,2 12,0 34,-10 40,-13 28,-12 54,-28 79,-46l23 0c-48,33 -96,70 -156,73 0,0 0,0 0,0z"/>
  <path class="fil28" d="M2870 4826l-15 0c3,-27 2,-56 -1,-84 -3,-25 -15,-60 11,-78 13,-9 28,-13 44,-13 49,0 106,38 137,64 41,34 79,72 116,111l-21 0c-28,-29 -57,-58 -88,-86 -32,-29 -69,-58 -112,-68 -8,-2 -18,-4 -27,-4 -3,0 -6,0 -8,1 -1,0 -1,0 -2,0 -10,0 -17,6 -21,17 -18,8 -23,21 -15,39 2,17 5,34 6,51 1,17 0,34 -2,50z"/>
  <path class="fil27" d="M2092 4642l-11 0 -10 -10c-21,-56 -25,-115 -14,-174l0 0c3,0 6,-1 9,-1l6 0c0,2 -1,5 -1,7 -8,6 -14,16 -14,27 0,9 3,17 9,23 0,44 9,86 26,127z"/>
  <path class="fil28" d="M2102 4662l-21 -21 11 0c3,7 6,14 10,21z"/>
  <path class="fil27" d="M4178 4526l-7 0c11,-20 20,-41 26,-62 9,6 15,16 15,28 0,19 -15,34 -34,34zm-21 0l-84 0c0,-23 -1,-46 -6,-68l111 0c2,0 4,0 7,1 -6,23 -16,45 -28,67zm-97 0l-506 0c5,-24 14,-47 27,-68l473 0 0 2c4,21 6,43 6,66zm-521 0l-305 0c-23,-22 -46,-45 -68,-68l398 0c-12,20 -21,43 -25,68zm-327 0l-187 0c-54,-31 -110,-55 -170,-68l291 0c21,23 44,46 67,68zm-215 0l-277 0c-22,-7 -48,-10 -68,-12 -12,-2 -25,-3 -37,-3 -26,0 -51,4 -74,15l-311 0c3,-22 8,-46 17,-68l436 0c1,3 4,6 8,6 0,0 1,0 1,0 20,-3 39,-4 58,-4 86,0 170,26 247,66zm-346 0l-59 0c9,-1 19,-2 28,-2 10,0 20,1 31,2zm-435 0l-124 0c-10,0 -19,-4 -25,-11 0,-17 2,-34 5,-50 6,-4 13,-7 20,-7l141 0c-5,13 -9,27 -12,40 -2,9 -4,18 -5,27z"/>
  <path class="fil29" d="M2229 4526l-14 0c1,-9 3,-18 5,-27 3,-13 7,-27 12,-40l14 0c-9,21 -14,46 -17,68z"/>
  <path class="fil29" d="M2719 4526l-69 0c-10,-1 -20,-2 -31,-2 -10,0 -19,1 -28,2l-51 0c22,-11 48,-15 74,-15 13,0 25,1 37,3 20,3 46,5 68,12z"/>
  <path class="fil29" d="M3554 4526l-16 0c5,-25 13,-47 25,-68l17 0c-13,21 -22,44 -27,68z"/>
  <path class="fil29" d="M3024 4526l-28 0c-77,-40 -161,-66 -247,-66 -19,0 -39,1 -58,4 0,0 -1,0 -1,0 -4,0 -7,-3 -8,-6l173 0c59,13 116,37 170,68z"/>
  <path class="fil29" d="M4073 4526l-13 0c0,-23 -2,-45 -6,-66l0 -2 14 0c5,22 6,45 6,68z"/>
  <path class="fil29" d="M3233 4526l-22 0c-23,-22 -45,-45 -67,-68l21 0c22,23 45,46 68,68z"/>
  <path class="fil29" d="M4171 4526l-14 0c12,-22 22,-44 28,-67 4,1 9,3 12,5 -6,21 -15,42 -26,62z"/>
  <path class="fil29" d="M2066 4515c-6,-6 -9,-14 -9,-23 0,-11 5,-21 14,-27 -3,17 -4,34 -5,50z"/>
  <path class="fil15" d="M4360 4346c0,0 -44,-5 -53,0 -9,5 16,51 16,51l56 0 -19 -51z"/>
  <path class="fil30" d="M2265 4826l3284 0c4,6 8,11 13,16l286 286c106,106 106,279 0,385 -53,53 -123,80 -193,80 -70,0 -139,-27 -193,-80l-385 -385c-82,-82 -216,-82 -298,0l-2 2c-81,81 -81,213 0,294 109,109 109,285 0,393 -109,109 -285,109 -393,0l-683 -683c-85,-85 -223,-86 -310,-3 -89,86 -91,228 -3,316l7 7c70,70 69,183 -1,252 -70,69 -182,68 -251,-1l-879 -879zm3723 0c29,0 55,9 77,24 -26,-4 -52,-12 -77,-24z"/>
  <path class="fil31" d="M2664 4826l-286 0c0,0 0,0 0,0l286 0m-317 0l-21 0 0 0 21 0c0,0 0,0 0,0z"/>
  <path class="fil32" d="M2379 4826l-32 0c0,0 0,0 0,0l31 0c0,0 0,0 0,0z"/>
  <polygon class="fil33" points="2875,5435 2569,5130 2769,5130 "/>
  <path class="fil34" d="M3381 4826l-220 0c0,0 0,0 0,0l220 0m-241 0l-97 0 0 0 97 0c0,0 0,0 0,0z"/>
  <path class="fil35" d="M3161 4826l-21 0c0,0 0,0 0,0l21 0c0,0 0,0 0,0z"/>
  <path class="fil36" d="M3357 5735l-209 -605 246 0 -1 1 0 0 0 0 0 0 0 0c-89,86 -91,228 -3,316l7 7c70,70 69,183 -1,252m-7 6l0 0c-10,9 -21,16 -32,23"/>
  <path class="fil34" d="M4097 4826l-165 0c0,0 0,0 0,0l165 0m-197 0l-141 0 0 0 141 0c0,0 0,0 0,0z"/>
  <path class="fil35" d="M3932 4826l-32 0c0,0 0,0 0,0l32 0c0,0 0,0 0,0z"/>
  <path class="fil36" d="M4452 5867l0 0c-8,-4 -16,-9 -24,-14l0 0m-6 -4l0 0 0 0c-2,-1 -4,-3 -6,-4l0 0 0 0c-2,-1 -4,-3 -6,-4l0 0 0 0c-2,-1 -4,-3 -5,-4l0 0 0 0 0 0c-2,-1 -3,-3 -5,-4l0 0 0 0 0 0c-2,-1 -3,-3 -5,-4l0 0m-10 -10l-433 -433 -88 -255 338 0 255 740c-2,-1 -3,-2 -5,-2"/>
  <polygon class="fil31" points="4557,4826 4219,4826 4219,4826 4557,4826 "/>
  <path class="fil36" d="M4589 5899l-265 -769 338 0 57 165 0 2 0 1c0,1 0,3 0,4l0 0 0 0c0,1 0,3 1,4l0 1c0,1 0,3 1,4l0 1c0,1 1,3 1,4l0 0 0 0c0,1 1,3 1,4l0 0 0 0c0,2 1,3 1,5l0 0c0,2 1,3 1,5l0 0c6,21 15,41 27,60l101 292c0,1 0,2 -1,3l0 0c-1,4 -2,9 -3,13l0 0 0 0c-1,4 -3,8 -4,13l0 0c-1,2 -1,4 -2,6l0 0c-1,2 -2,4 -2,6l0 0c-2,4 -3,8 -5,12l0 0m-3 6l0 0c-1,2 -2,4 -3,6l0 0c-1,2 -2,4 -3,6l0 0c-1,2 -2,4 -3,6l0 0c-3,6 -7,12 -11,17l0 0 0 0m-4 6l0 0c-3,4 -6,7 -8,11 -3,4 -6,7 -9,11l0 0c-3,3 -6,7 -10,10 -3,3 -7,7 -10,10l-1 0c-2,1 -3,3 -5,4l-1 1c-1,1 -3,3 -4,4l-1 1c-2,1 -3,2 -5,4l-1 1c-2,1 -3,2 -5,3l-1 1c-2,1 -3,2 -5,3l-1 1c-2,1 -3,2 -5,3l-1 1c-2,1 -3,2 -5,3l-1 1c-2,1 -3,2 -5,3l-1 1c-2,1 -3,2 -5,3l-1 0c-2,1 -4,2 -5,3l-1 0c-2,1 -4,2 -5,3l0 0 0 0c-2,1 -4,2 -6,3l0 0 0 0 0 0c-2,1 -4,2 -6,3l0 0 0 0c-2,1 -4,2 -6,2l-1 0c-2,1 -4,1 -6,2l-1 0c-2,1 -4,1 -5,2l-1 0c-2,1 -4,1 -5,2l-1 0c-2,1 -4,1 -6,2l-1 0c-2,1 -4,1 -6,2l-1 0c-2,1 -4,1 -6,1l-1 0c-2,0 -4,1 -6,1l-1 0c-2,0 -4,1 -6,1l-1 0c-2,0 -4,1 -6,1l0 0c-4,1 -8,1 -13,2l0 0 0 0c-2,0 -4,0 -6,1l0 0 0 0 0 0c-4,0 -9,1 -13,1l-1 0c-2,0 -4,0 -6,0m110 -26c-2,1 -4,2 -6,3"/>
  <path class="fil33" d="M5492 5538l0 0 -3 -2 0 0 -3 -2 0 0 -2 -2 0 0 -2 -2 0 0 -2 -2 0 0 -2 -2 0 0 -2 -2 -1 -1 0 0 -2 -2 -2 -2 -1 -1 0 0 -2 -2 0 0 -2 -2 -383 -383 404 0 160 463c-54,-2 -107,-20 -152,-54z"/>
  <polygon class="fil31" points="5380,4826 4697,4826 4697,4826 5380,4826 "/>
  <path class="fil37" d="M5851 5130l-366 0 -105 -304 170 0c3,5 7,9 11,14l0 0c1,1 1,1 2,2l286 286 0 0 0 0 2 2zm215 -279c-13,-2 -25,-5 -38,-9l0 0c-4,-1 -9,-3 -13,-4l0 0c-9,-3 -17,-7 -26,-11 29,0 55,9 77,24zm-3706 69l-93 -93 61 0 32 93zm2420 210l-118 0 -105 -304 141 0 99 287 0 0 0 0c-1,1 -3,2 -4,3l0 0 0 0c-1,1 -2,2 -4,3l0 0 0 0 0 0c-1,1 -2,2 -3,3l0 0 0 0 0 0c-1,1 -2,2 -4,4l-2 2zm-455 0l-122 0 -105 -304 122 0 105 304zm-459 0l-167 0c-22,-20 -46,-36 -72,-46l0 0c-2,-1 -3,-1 -5,-2l0 0c-2,-1 -3,-1 -5,-2l0 0c-3,-1 -7,-2 -10,-3l0 0c-2,0 -3,-1 -5,-1l-1 0c-1,0 -3,-1 -4,-1l-1 0c-2,0 -3,-1 -5,-1l0 0c-2,0 -3,-1 -5,-1l0 0c-2,0 -3,-1 -5,-1l0 0 0 0c-2,0 -3,0 -5,-1l0 0 0 0c-2,0 -3,0 -5,-1l0 0c-2,0 -3,0 -5,0l0 0 0 0c-2,0 -3,0 -5,0l0 0 0 0 0 0c-1,0 -3,0 -4,0l0 0 0 0c-2,0 -3,0 -5,0l0 0 -2 0 -3 0 0 0 -1 0c-1,0 -3,0 -4,0l0 0 0 0 0 0c-2,0 -3,0 -5,0l0 0 0 0 0 0c-1,0 -3,0 -4,0l-1 0c-1,0 -3,0 -4,0l-1 0c-2,0 -3,0 -5,1l0 0 0 0c-2,0 -3,0 -5,1l0 0 -1 0c-1,0 -3,0 -4,1l0 0 0 0 0 0c-2,0 -3,1 -5,1l0 0 0 0c-2,0 -3,1 -5,1l0 0c-2,0 -3,1 -5,1l0 0 0 0c-5,1 -10,3 -15,4l0 0c-2,1 -4,1 -6,2l-89 -257 379 0 105 304zm-716 0l-379 0 -105 -304 379 0 105 304z"/>
  <polygon class="fil8" points="2769,5130 2569,5130 2359,4920 2327,4826 2664,4826 "/>
  <path class="fil38" d="M3394 5130l-246 0 -105 -304 338 0 89 257c-3,1 -6,2 -9,3l0 0c-2,1 -3,1 -5,2l0 0c-2,1 -3,1 -5,2l0 0c-5,2 -9,5 -14,7l0 0c-1,1 -3,2 -4,3l0 0c-1,1 -3,2 -4,3l0 0 0 0c-1,1 -3,2 -4,3l0 0 0 0c-1,1 -3,2 -4,3l-1 0c-1,1 -3,2 -4,3l0 0 0 0c-1,1 -3,2 -4,3l-1 0c-1,1 -2,2 -4,3l-1 1c-1,1 -2,2 -4,3l-1 0c-1,1 -2,2 -4,3l0 0 -3 2z"/>
  <polygon class="fil38" points="4202,5130 3864,5130 3759,4826 4097,4826 "/>
  <polygon class="fil8" points="4661,5130 4324,5130 4219,4826 4557,4826 "/>
  <path class="fil8" d="M5485 5130l-404 0 -2 -2c-1,-1 -3,-3 -4,-4 -1,-1 -2,-2 -4,-3l0 0 0 0 0 0c-1,-1 -2,-2 -3,-3l0 0 0 0 0 0c-1,-1 -2,-2 -3,-3l0 0 0 0 0 0c-1,-1 -2,-2 -3,-3l0 0 0 0 0 0c-1,-1 -2,-2 -3,-2l-1 -1c-1,-1 -2,-2 -3,-2l0 0 0 0 0 0c-1,-1 -2,-2 -3,-2l-1 -1 -3 -2 -1 -1c-1,-1 -2,-1 -3,-2l-2 -1 -3 -1 -2 -1 -2 -1 -2 -1 -3 -1 -2 -1 -3 -1 -2 -1 -3 -1 -2 -1 -3 -1 -2 -1 -3 -1 -2 -1 -3 -1 -2 -1 -3 -1 -2 -1 -4 -1 0 0 0 0 0 0c-1,0 -3,-1 -4,-1l0 0 0 0 0 0c-1,0 -3,-1 -4,-1l0 0 0 0 0 0c-2,0 -3,-1 -5,-1l0 0c-2,0 -3,-1 -5,-1l0 0 0 0 0 0c-2,0 -3,-1 -5,-1l0 0c-2,0 -3,-1 -5,-1l0 0c-2,0 -3,0 -5,-1l0 0c-2,0 -3,0 -5,-1l0 0c-2,0 -3,0 -5,0l0 0c-5,0 -10,-1 -15,-1 -2,0 -3,0 -5,0l0 0c-22,1 -44,4 -65,12l0 0c-8,3 -16,6 -24,10l0 0c-1,1 -3,1 -4,2l0 0c-2,1 -3,2 -4,2l0 0c-1,1 -3,2 -4,3l0 0c-1,1 -3,2 -4,3l0 0c-1,1 -3,2 -4,3l0 0 0 0c-1,1 -3,2 -4,3l0 0c-1,1 -3,2 -4,3l0 0c-1,1 -3,2 -4,3l0 0c-1,1 -3,2 -4,3l-99 -287 683 0 105 304z"/>
  <polygon class="fil0" points="3720,4455 2569,4455 2558,4214 2548,4009 2539,3824 2498,2958 3425,2958 3572,3050 3718,3139 3718,3165 3718,3364 "/>
  <polygon class="fil39" points="2642,4383 2642,3031 3404,3031 3645,3180 3647,4383 "/>
  <path class="fil0" d="M2582 3953l0 -199 60 -99 0 199 -60 99zm559 -922l-121 0 44 -73 121 0 -44 73z"/>
  <path class="fil40" d="M2642 3854l0 -199 207 -341 0 199 -207 341zm482 -796l-121 0 16 -27 121 0 -16 27z"/>
  <polygon class="fil0" points="3057,4455 2936,4455 2980,4383 3101,4383 "/>
  <polygon class="fil40" points="3101,4383 2980,4383 3096,4192 3217,4192 "/>
  <path class="fil0" d="M2721 4455l-151 0 -1 -20c8,-10 13,-23 13,-36l0 -225 60 -99 0 308 123 0 -44 73z"/>
  <path class="fil40" d="M2765 4383l-123 0 0 -308 207 -341 0 407c0,22 14,41 34,48l-118 194z"/>
  <polygon class="fil0" points="3567,3058 3448,3058 3404,3031 3275,3031 3319,2958 3425,2958 3572,3050 "/>
  <polygon class="fil40" points="3448,3058 3258,3058 3275,3031 3404,3031 "/>
  <path class="fil2" d="M2526 4455l-411 0c-31,0 -56,-25 -56,-56l0 -1385c0,-31 25,-56 56,-56l411 0c31,0 56,25 56,56l0 1385c0,31 -25,56 -56,56z"/>
  <path class="fil41" d="M2204 3298c-43,0 -77,-56 -77,-126 0,-70 34,-126 77,-126 43,0 77,56 77,126 0,70 -34,126 -77,126z"/>
  <polygon class="fil41" points="2337,3159 2454,3159 2454,3096 2337,3096 "/>
  <polygon class="fil41" points="2337,3248 2454,3248 2454,3185 2337,3185 "/>
  <path class="fil41" d="M2454 4176l-54 0c-17,0 -31,-14 -31,-31 0,-17 14,-32 31,-32l54 0c17,0 32,14 32,32 0,17 -14,31 -32,31z"/>
  <path class="fil41" d="M2243 4176l-54 0c-17,0 -31,-14 -31,-31 0,-17 14,-32 31,-32l54 0c17,0 32,14 32,32 0,17 -14,31 -32,31z"/>
  <path class="fil3" d="M2476 3456l-311 0c-12,0 -22,-10 -22,-22 0,-12 10,-22 22,-22l311 0c12,0 22,10 22,22 0,12 -10,22 -22,22z"/>
  <path class="fil3" d="M2476 3614l-311 0c-12,0 -22,-10 -22,-22 0,-12 10,-22 22,-22l311 0c12,0 22,10 22,22 0,12 -10,22 -22,22z"/>
  <path class="fil3" d="M2476 3772l-311 0c-12,0 -22,-10 -22,-22 0,-12 10,-22 22,-22l311 0c12,0 22,10 22,22 0,12 -10,22 -22,22z"/>
  <path class="fil3" d="M2476 3930l-311 0c-12,0 -22,-10 -22,-22 0,-12 10,-22 22,-22l311 0c12,0 22,10 22,22 0,12 -10,22 -22,22z"/>
  <path class="fil41" d="M2277 4285c-15,0 -27,-12 -27,-27 0,-15 12,-27 27,-27 15,0 27,12 27,27 0,15 -12,27 -27,27z"/>
  <path class="fil41" d="M2379 4285c-15,0 -27,-12 -27,-27 0,-15 12,-27 27,-27 15,0 27,12 27,27 0,15 -12,27 -27,27z"/>
  <path class="fil41" d="M2481 4285c-15,0 -27,-12 -27,-27 0,-15 12,-27 27,-27 15,0 27,12 27,27 0,15 -12,27 -27,27z"/>
  <path class="fil41" d="M2173 4285c-15,0 -27,-12 -27,-27 0,-15 12,-27 27,-27 15,0 27,12 27,27 0,15 -12,27 -27,27z"/>
  <path class="fil21" d="M2785 2442c2,6 -2,12 -8,13l-142 35c-6,1 -12,-2 -13,-8l-53 -213c-1,-3 0,-6 3,-8l20 -17c5,-4 3,-13 -4,-14l-23 -3c-3,0 -6,-3 -7,-6l-60 -243c-8,-33 32,-169 44,-172 6,-1 109,92 119,131l34 137c1,4 0,8 -3,10l-25 25c-6,6 -3,17 6,18l29 4c4,1 8,4 9,8l75 301z"/>
  <path class="fil5" d="M2535 1814l-1 -5c-1,-4 1,-8 5,-9 1,0 1,0 2,0 3,0 6,2 7,5l2 7c-5,-4 -8,-6 -9,-6 0,0 0,0 0,0 -2,0 -3,3 -6,7z"/>
  <path class="fil42" d="M2648 2258l-113 -443c2,-4 4,-7 6,-7 0,0 0,0 0,0 1,0 4,2 9,6l109 428 -11 17z"/>
  <path class="fil0" d="M2626 2603c-3,5 -10,6 -15,3l-123 -79c-5,-3 -6,-10 -3,-15l119 -185c2,-2 4,-4 7,-4l26 3c7,1 11,-7 7,-12l-14 -19c-2,-3 -2,-6 0,-9l135 -211c18,-29 145,-93 155,-86 5,3 8,143 -14,177l-76 118c-2,3 -6,5 -9,5l-35 -1c-9,0 -14,10 -9,17l17 24c3,4 3,8 0,12l-167 261z"/>
  <path class="fil43" d="M2922 2000c-1,-6 -1,-10 -2,-10 -1,0 -1,0 -2,0 -2,0 -4,0 -7,1l3 -5c1,-2 4,-3 6,-3 1,0 3,0 4,1 3,2 4,7 2,10l-4 6z"/>
  <path class="fil44" d="M2688 2370l-17 0 240 -379c3,-1 5,-1 7,-1 1,0 2,0 2,0 1,1 1,4 2,10l-234 370z"/>
  <path class="fil0" d="M2867 2419l-28 195 -9 61c-3,19 -16,33 -32,33l-236 0c-15,0 -29,-14 -32,-33l-36 -256c-4,-26 11,-50 32,-50l309 0c20,0 36,24 32,50z"/>
  <path class="fil44" d="M2799 2708l-203 0 -6 -44c-4,-26 11,-50 32,-50l218 0 -9 61c-3,19 -16,33 -32,33z"/>
  <path class="fil21" d="M2864 2465l-367 0c-31,0 -55,-25 -55,-55l0 -14c0,-31 25,-55 55,-55l367 0c31,0 55,25 55,55l0 14c0,31 -25,55 -55,55z"/>
  <path class="fil45" d="M4683 3109l0 1032c0,20 -11,37 -28,46 -7,3 -15,5 -23,5l-1661 0c-28,0 -51,-23 -51,-51l0 -1032c0,-20 12,-37 29,-46 7,-3 14,-5 22,-5l1661 0c28,0 51,23 51,51z"/>
  <path class="fil8" d="M4612 3109l0 1032c0,28 -23,51 -51,51l-1661 0c-28,0 -51,-23 -51,-51l0 -1032c0,-28 23,-51 51,-51l1661 0c28,0 51,23 51,51z"/>
  <path class="fil46" d="M4484 4192l-803 0 0 -493c0,0 0,-1 0,-1 0,-40 -33,-73 -73,-73l-233 0c-40,0 -73,33 -73,73l0 334 -72 0c-11,0 -19,9 -19,19 0,11 9,19 19,19l72 0 0 122 -403 0c-6,0 -12,-1 -17,-3 -20,-7 -34,-26 -34,-48l0 -921 1584 0c28,0 51,23 51,51l0 921zm-1067 -757c-24,0 -44,19 -44,44 0,24 20,44 44,44l402 0c24,0 44,-20 44,-44 0,-24 -19,-44 -44,-44l-402 0zm138 757l-108 0 0 -422 108 0 0 422z"/>
  <polygon class="fil0" points="3647,4192 3681,4192 3681,4192 3647,4192 "/>
  <polygon class="fil47" points="3556,4192 3647,4192 3647,4192 3556,4192 "/>
  <path class="fil48" d="M3681 4192l-125 0 0 -422 53 0c29,0 55,-17 66,-43l0 0c4,-9 6,-18 7,-29l0 493z"/>
  <path class="fil49" d="M3819 3521l-402 0c-24,0 -44,-20 -44,-44 0,-24 20,-44 44,-44l402 0c24,0 44,19 44,44 0,24 -19,44 -44,44z"/>
  <path class="fil50" d="M3157 4069l-77 0c-11,0 -19,-9 -19,-19 0,-11 9,-19 19,-19l77 0c11,0 19,9 19,19 0,11 -9,19 -19,19z"/>
  <path class="fil50" d="M3308 4069l-77 0c-11,0 -19,-9 -19,-19 0,-11 9,-19 19,-19l77 0c11,0 19,9 19,19 0,11 -9,19 -19,19z"/>
  <path class="fil50" d="M3897 4069l-77 0c-11,0 -19,-9 -19,-19 0,-11 9,-19 19,-19l77 0c11,0 19,9 19,19 0,11 -9,19 -19,19z"/>
  <path class="fil50" d="M4048 4069l-77 0c-11,0 -19,-9 -19,-19 0,-11 9,-19 19,-19l77 0c11,0 19,9 19,19 0,11 -9,19 -19,19z"/>
  <path class="fil51" d="M3681 3697c0,11 -2,21 -7,30 -11,25 -37,43 -66,43l-161 0 0 571c0,34 -23,63 -55,70 -6,1 -11,2 -18,2 -40,0 -73,-33 -73,-73l0 -644c0,-40 33,-73 73,-73l233 0c40,0 73,33 73,73z"/>
  <path class="fil52" d="M3303 4306l0 -609c0,-40 33,-73 73,-73l200 0c-11,25 -37,43 -66,43l-90 0c-39,0 -70,31 -70,70l0 501c0,31 -19,57 -46,68z"/>
  <path class="fil53" d="M3448 4339l-55 0 0 -539c0,-40 33,-73 73,-73l209 0c-11,25 -37,43 -66,43l-161 0 0 569z"/>
  <path class="fil54" d="M3863 4357l0 79c0,10 -8,19 -19,19l-660 0c-10,0 -19,-8 -19,-19l0 -79c0,-10 8,-19 19,-19l660 0c10,0 19,8 19,19z"/>
  <path class="fil30" d="M3844 4455l-660 0 0 0c-10,0 -19,-8 -19,-19l0 -43c0,-10 8,-19 19,-19l660 0c10,0 19,8 19,19l0 43c0,10 -8,19 -19,19z"/>
  <polygon class="fil45" points="3987,4458 4979,4458 4979,4377 3987,4377 "/>
  <path class="fil13" d="M4768 4407c-1,0 -26,-11 -61,-11 -25,0 -56,6 -86,24 -31,19 -61,51 -86,103 -18,37 -24,77 -24,118 0,77 20,157 20,228 0,36 -5,70 -21,100 -16,30 -42,55 -84,76 -40,20 -84,29 -128,29 -190,0 -399,-177 -446,-492 -27,-181 -41,-308 -41,-392 0,-49 5,-84 13,-105 4,-11 9,-18 15,-22 6,-4 12,-6 19,-6 4,0 7,-3 7,-7 0,-4 -3,-7 -7,-7 -10,0 -20,3 -28,10 -12,10 -20,26 -26,48 -5,23 -8,52 -8,90 0,86 13,213 41,394 48,320 262,504 461,504 46,0 92,-10 134,-31 45,-22 74,-50 91,-83 17,-32 23,-69 23,-106 0,-73 -20,-153 -20,-228 0,-39 6,-77 22,-112 24,-50 53,-80 80,-97 28,-17 56,-22 79,-22 16,0 30,3 40,5 5,1 9,3 11,3 1,0 2,1 3,1l1 0 0 0c4,2 8,0 10,-4 2,-4 0,-8 -4,-10z"/>
  <path class="fil13" d="M3273 4044c-1,0 -17,-9 -39,-9 -15,0 -32,4 -47,18 -15,14 -27,38 -33,74 -5,32 -4,82 -5,142 -1,89 -6,199 -37,294 -16,47 -38,91 -69,127 -31,36 -72,64 -126,81 -46,14 -87,20 -124,20 -63,0 -114,-17 -158,-46 -66,-42 -114,-110 -150,-179 -37,-70 -62,-142 -82,-194 -22,-56 -32,-101 -32,-135 0,-30 7,-51 18,-65 11,-14 25,-20 42,-21 4,0 7,-4 7,-8 0,-4 -4,-7 -8,-7 -20,1 -40,10 -53,27 -13,17 -21,42 -21,74 0,36 10,83 33,140 27,68 63,175 124,265 31,45 68,86 114,115 46,30 101,48 166,48 39,0 82,-7 129,-21 75,-23 127,-68 162,-125 53,-85 70,-195 76,-295 3,-50 3,-98 3,-138 0,-41 1,-75 4,-97 5,-35 16,-55 28,-66 12,-11 25,-14 37,-14 9,0 17,2 23,4 3,1 5,2 7,3l2 1 0 0 0 0c4,2 8,0 10,-3 2,-4 0,-8 -3,-10z"/>
  <path class="fil55" d="M3121 4043c-1,0 -30,-14 -72,-14 -33,0 -74,9 -112,40 -38,31 -73,85 -96,172 -35,135 -65,307 -115,445 -25,69 -55,129 -94,172 -38,43 -84,68 -141,68 -12,0 -24,-1 -37,-3 -42,-7 -80,-29 -114,-62 -51,-48 -91,-120 -119,-197 -28,-77 -43,-159 -43,-229 0,-50 8,-93 23,-123 8,-15 17,-27 28,-35 11,-8 24,-12 40,-12 2,0 4,0 5,0 4,0 7,-3 8,-7 0,-4 -3,-7 -7,-8 -2,0 -4,0 -6,0 -18,0 -35,5 -48,15 -20,14 -35,38 -44,67 -9,29 -14,64 -14,103 0,96 27,213 76,310 25,49 55,93 90,126 35,34 76,58 121,65 13,2 26,3 39,3 62,0 112,-28 152,-72 60,-67 99,-173 131,-286 31,-114 55,-236 81,-336 22,-86 56,-136 91,-165 35,-29 72,-37 103,-37 19,0 36,3 48,6 6,2 11,3 14,4 2,1 3,1 4,1l1 0 0 0c4,2 8,0 10,-4 2,-4 0,-8 -4,-10z"/>
  <path class="fil46" d="M2943 3220l-94 0 0 -111c0,-28 23,-51 51,-51l43 0 0 162z"/>
  <polygon class="fil56" points="5360,4411 4977,4377 4977,4458 5360,4458 "/>
  <path class="fil30" d="M1995 5191l0 0c-84,84 -220,84 -303,0l-592 -592c-84,-84 -84,-220 0,-303 84,-84 220,-84 303,0l592 592c84,84 84,220 0,303z"/>
  <path class="fil2" d="M2607 5803l0 0c-84,84 -220,84 -303,0l-121 -121c-84,-84 -84,-220 0,-303 84,-84 220,-84 303,0l121 121c84,84 84,220 0,303z"/>
  <path class="fil1" d="M3937 1292l0 0c-84,84 -220,84 -303,0l-121 -121c-84,-84 -84,-220 0,-303 84,-84 220,-84 303,0l121 121c84,84 84,220 0,303z"/>
  <path class="fil30" d="M6233 2695l0 0c-84,84 -220,84 -303,0l-121 -121c-84,-84 -84,-220 0,-303 84,-84 220,-84 303,0l121 121c84,84 84,220 0,303z"/>
  <path class="fil57" d="M3613 6465c-6,6 -11,13 -15,20l-6 -3c-1,-4 -5,-7 -9,-6 -5,1 -8,5 -7,9 1,5 5,8 9,7l3 -1 6 3c-3,8 -6,16 -7,24l10 2c3,-18 12,-35 25,-48l-8 -7z"/>
  <path class="fil57" d="M3689 6433c-2,0 -5,0 -7,0l-1 -9c3,-2 4,-5 4,-9 -1,-5 -6,-9 -11,-9 -5,1 -9,6 -9,11 0,4 3,6 6,8l1 9c-10,2 -19,5 -29,9l5 10c13,-6 27,-9 42,-9 7,0 14,1 21,2l2 -10c-7,-2 -15,-2 -23,-2z"/>
  <path class="fil57" d="M3780 6468c5,-1 8,-5 7,-9 -1,-5 -5,-8 -9,-7 -4,1 -7,4 -7,8l-6 5c-6,-6 -12,-11 -20,-16l-6 9c16,10 28,24 36,41l10 -4c-3,-8 -8,-15 -13,-21l6 -5 3 0z"/>
  <path class="fil57" d="M3681 6575c-5,0 -11,0 -16,0 -12,0 -24,-1 -34,-3 -5,-1 -12,-2 -18,-4 15,26 43,43 75,43 40,0 73,-27 83,-63 -9,6 -21,11 -34,16 -16,5 -35,8 -55,10z"/>
  <path class="fil57" d="M3725 6532c-10,0 -19,-8 -19,-19 0,-10 8,-19 19,-19 10,0 19,8 19,19 0,10 -8,19 -19,19zm-66 13c-14,0 -26,-12 -26,-26 0,-14 12,-26 26,-26 14,0 26,12 26,26 0,14 -12,26 -26,26zm30 -91c-47,0 -84,37 -84,83 0,6 1,12 2,18 9,7 38,12 74,10 40,-2 74,-13 93,-30 0,-3 0,-5 -1,-8 -5,-41 -41,-72 -84,-72z"/>
  <path class="fil57" d="M3911 6480c-4,-2 -11,-4 -19,-3 -8,1 -12,5 -12,14l0 12 31 0 0 24 -31 0 0 76 -27 0 0 -76 -19 0 0 -24 19 0 0 -12c0,-23 12,-39 36,-39 9,0 16,2 22,4l0 24z"/>
  <path class="fil57" d="M3976 6526c-2,0 -5,-1 -7,-1 -12,0 -21,8 -21,22l0 54 -27 0 0 -100 26 0 0 11c6,-9 16,-14 28,-14 6,0 12,2 15,5l-14 22z"/>
  <path class="fil57" d="M4012 6543l44 0c-2,-13 -10,-20 -22,-20 -13,0 -20,8 -22,20zm71 9c0,3 0,7 -1,9l-71 0c3,14 13,21 26,21 9,0 18,-4 25,-10l16 17c-11,10 -26,15 -42,15 -31,0 -52,-21 -52,-52 0,-31 21,-53 50,-53 29,0 48,21 48,52z"/>
  <path class="fil57" d="M4118 6543l44 0c-2,-13 -10,-20 -22,-20 -13,0 -20,8 -22,20zm71 9c0,3 0,7 -1,9l-71 0c3,14 13,21 26,21 9,0 18,-4 25,-10l16 17c-11,10 -26,15 -42,15 -31,0 -52,-21 -52,-52 0,-31 21,-53 50,-53 29,0 48,21 48,52z"/>
  <path class="fil57" d="M4226 6552c0,16 10,27 26,27 16,0 26,-12 26,-27 0,-15 -10,-27 -26,-27 -15,0 -26,12 -26,27zm79 0c0,30 -21,52 -48,52 -13,0 -23,-5 -29,-13l0 51 -27 0 0 -141 26 0 0 11c6,-8 16,-14 30,-14 28,0 48,23 48,52z"/>
  <path class="fil57" d="M4345 6602l-27 0 0 -100 27 0 0 100zm4 -132c0,10 -8,17 -17,17 -10,0 -17,-7 -17,-17 0,-10 7,-17 17,-17 10,0 17,8 17,17z"/>
  <polygon class="fil57" points="4389,6538 4427,6503 4460,6503 4411,6549 4460,6602 4427,6602 4389,6562 4389,6602 4363,6602 4363,6454 4389,6454 "/>
  <path class="fil57" d="M2561 6575l0 -45c-5,-9 -17,-16 -30,-16 -20,0 -32,16 -32,38 0,22 12,38 32,38 12,0 24,-7 30,-15zm0 27l0 -15c-7,10 -19,17 -33,17 -26,0 -44,-20 -44,-51 0,-31 18,-52 44,-52 13,0 25,7 33,17l0 -52 15 0 0 136 -15 0z"/>
  <path class="fil57" d="M2644 6513c-21,0 -31,18 -32,33l65 0c0,-15 -10,-33 -32,-33zm-48 39c0,-28 20,-51 48,-51 30,0 47,23 47,53l0 4 -80 0c1,19 14,34 35,34 11,0 23,-4 30,-12l7 10c-10,10 -23,15 -39,15 -29,0 -50,-21 -50,-52z"/>
  <path class="fil57" d="M2703 6588l8 -11c7,8 19,14 32,14 15,0 23,-7 23,-17 0,-24 -61,-9 -61,-46 0,-15 13,-28 37,-28 17,0 28,6 36,14l-7 11c-6,-7 -17,-12 -29,-12 -13,0 -22,7 -22,15 0,22 61,7 61,46 0,16 -13,30 -39,30 -16,0 -30,-5 -40,-15z"/>
  <path class="fil57" d="M2801 6601l0 -98 15 0 0 98 -15 0zm-3 -122c0,-6 5,-10 10,-10 6,0 10,5 10,10 0,6 -5,10 -10,10 -5,0 -10,-4 -10,-10z"/>
  <path class="fil57" d="M2913 6573l0 -43c-5,-9 -17,-16 -29,-16 -20,0 -32,16 -32,37 0,22 12,37 32,37 12,0 24,-8 29,-16zm-71 54l8 -11c8,10 18,13 32,13 16,0 32,-8 32,-30l0 -14c-7,10 -19,18 -33,18 -26,0 -44,-19 -44,-51 0,-32 18,-51 44,-51 13,0 25,7 33,17l0 -15 15 0 0 95c0,33 -23,43 -47,43 -17,0 -28,-3 -40,-15z"/>
  <path class="fil57" d="M3020 6601l0 -64c0,-17 -9,-23 -22,-23 -12,0 -23,7 -29,15l0 72 -15 0 0 -98 15 0 0 14c7,-8 20,-17 35,-17 21,0 31,10 31,32l0 69 -15 0z"/>
  <path class="fil57" d="M3103 6513c-21,0 -31,18 -32,33l64 0c0,-15 -10,-33 -32,-33zm-48 39c0,-28 20,-51 48,-51 30,0 47,23 47,53l0 4 -80 0c1,19 14,34 35,34 11,0 23,-4 30,-12l7 10c-10,10 -23,15 -39,15 -29,0 -50,-21 -50,-52z"/>
  <path class="fil57" d="M3241 6575l0 -45c-6,-9 -17,-16 -30,-16 -20,0 -32,16 -32,38 0,22 12,38 32,38 12,0 24,-7 30,-15zm0 27l0 -15c-7,10 -19,17 -33,17 -26,0 -44,-20 -44,-51 0,-31 18,-52 44,-52 13,0 25,7 33,17l0 -52 15 0 0 136 -15 0z"/>
  <path class="fil57" d="M3374 6590c20,0 32,-16 32,-38 0,-22 -12,-38 -32,-38 -12,0 -24,7 -29,16l0 45c5,9 17,15 29,15zm-45 11l0 -136 15 0 0 52c8,-11 20,-17 33,-17 26,0 44,20 44,52 0,32 -18,51 -44,51 -14,0 -26,-7 -33,-17l0 15 -15 0z"/>
  <path class="fil57" d="M3438 6626c2,1 6,2 8,2 7,0 11,-2 15,-10l7 -15 -41 -99 16 0 33 81 33 -81 17 0 -49 118c-6,14 -16,20 -29,20 -3,0 -8,-1 -11,-1l2 -14z"/>
 </g>
</svg>
